<svg xmlns="http://www.w3.org/2000/svg" xmlns:xlink="http://www.w3.org/1999/xlink" width="500" zoomAndPan="magnify" viewBox="0 0 375 374.999991" height="500" preserveAspectRatio="xMidYMid meet" version="1.0"><defs><g/><clipPath id="3cb87f21e3"><path d="M 160 76.738281 L 179 76.738281 L 179 112 L 160 112 Z M 160 76.738281 " clip-rule="nonzero"/></clipPath><clipPath id="3c5d3006e9"><path d="M 134 88 L 241.484375 88 L 241.484375 138.238281 L 134 138.238281 Z M 134 88 " clip-rule="nonzero"/></clipPath></defs><g clip-path="url(#3cb87f21e3)"><path fill="#8c999b" d="M 173.09375 79.097656 C 176.464844 83.75 184.445312 111.585938 169.402344 111.585938 C 154.359375 111.585938 162.34375 83.75 165.714844 79.097656 C 166.90625 77.453125 168.308594 76.738281 169.402344 76.738281 C 170.496094 76.738281 171.902344 77.453125 173.09375 79.097656 Z M 173.09375 79.097656 " fill-opacity="1" fill-rule="nonzero"/></g><path fill="#d1bb9b" d="M 152.265625 90.042969 C 155.636719 94.695312 163.617188 122.535156 148.574219 122.535156 C 133.53125 122.535156 141.511719 94.695312 144.882812 90.042969 C 146.078125 88.398438 147.480469 87.683594 148.574219 87.683594 C 149.667969 87.683594 151.070312 88.398438 152.265625 90.042969 Z M 152.265625 90.042969 " fill-opacity="1" fill-rule="nonzero"/><g clip-path="url(#3c5d3006e9)"><path fill="#333333" d="M 235.078125 109.355469 L 211.40625 95.769531 C 211.136719 95.613281 210.800781 95.613281 210.527344 95.769531 L 186.859375 109.355469 C 186.585938 109.511719 186.417969 109.800781 186.417969 110.113281 L 186.417969 122.566406 C 180.898438 119.246094 176.171875 116.726562 170.28125 117.121094 L 170.28125 103.738281 L 173.363281 106.238281 C 173.523438 106.371094 173.722656 106.4375 173.917969 106.4375 C 174.171875 106.4375 174.425781 106.324219 174.597656 106.113281 C 174.90625 105.738281 174.851562 105.1875 174.472656 104.882812 L 170.28125 101.480469 L 170.28125 97.761719 L 173.347656 100.246094 C 173.511719 100.378906 173.707031 100.445312 173.902344 100.445312 C 174.15625 100.445312 174.410156 100.335938 174.585938 100.125 C 174.890625 99.75 174.835938 99.199219 174.460938 98.894531 L 170.28125 95.503906 L 170.28125 91.640625 L 173.328125 94.113281 C 173.492188 94.242188 173.6875 94.308594 173.882812 94.308594 C 174.140625 94.308594 174.394531 94.199219 174.566406 93.988281 C 174.875 93.613281 174.816406 93.0625 174.441406 92.757812 L 170.019531 89.167969 C 169.949219 89.101562 169.871094 89.042969 169.78125 89 C 169.472656 88.855469 169.109375 88.898438 168.847656 89.113281 L 164.371094 92.746094 C 163.992188 93.050781 163.9375 93.601562 164.242188 93.976562 C 164.550781 94.351562 165.105469 94.40625 165.480469 94.101562 L 168.523438 91.632812 L 168.523438 95.453125 L 164.371094 98.824219 C 163.996094 99.128906 163.9375 99.679688 164.246094 100.054688 C 164.417969 100.265625 164.671875 100.375 164.925781 100.375 C 165.121094 100.375 165.320312 100.3125 165.484375 100.179688 L 168.523438 97.710938 L 168.523438 101.433594 L 164.355469 104.816406 C 163.980469 105.121094 163.925781 105.671875 164.230469 106.046875 C 164.40625 106.257812 164.65625 106.367188 164.914062 106.367188 C 165.109375 106.367188 165.304688 106.300781 165.46875 106.171875 L 168.523438 103.691406 L 168.523438 117.320312 C 168.339844 117.351562 168.15625 117.382812 167.96875 117.417969 C 164.613281 118.050781 160.230469 120.28125 151.804688 125.648438 C 151.019531 126.148438 150.238281 126.648438 149.453125 127.152344 L 149.453125 114.6875 L 152.53125 117.1875 C 152.695312 117.320312 152.890625 117.382812 153.085938 117.382812 C 153.34375 117.382812 153.597656 117.273438 153.769531 117.0625 C 154.078125 116.6875 154.019531 116.136719 153.644531 115.832031 L 149.453125 112.429688 L 149.453125 108.707031 L 152.519531 111.195312 C 152.679688 111.328125 152.878906 111.390625 153.074219 111.390625 C 153.328125 111.390625 153.582031 111.28125 153.753906 111.070312 C 154.0625 110.695312 154.007812 110.144531 153.628906 109.839844 L 149.453125 106.449219 L 149.453125 102.585938 L 152.5 105.058594 C 152.664062 105.191406 152.859375 105.257812 153.054688 105.257812 C 153.3125 105.257812 153.5625 105.144531 153.738281 104.933594 C 154.042969 104.558594 153.988281 104.007812 153.613281 103.703125 L 149.191406 100.117188 C 149.121094 100.046875 149.042969 99.988281 148.953125 99.945312 C 148.644531 99.800781 148.28125 99.84375 148.019531 100.058594 L 143.539062 103.695312 C 143.164062 104 143.109375 104.550781 143.414062 104.925781 C 143.722656 105.296875 144.277344 105.355469 144.652344 105.046875 L 147.695312 102.578125 L 147.695312 106.402344 L 143.542969 109.773438 C 143.164062 110.078125 143.109375 110.628906 143.417969 111.003906 C 143.589844 111.214844 143.84375 111.324219 144.097656 111.324219 C 144.292969 111.324219 144.492188 111.257812 144.652344 111.125 L 147.695312 108.660156 L 147.695312 112.378906 L 143.527344 115.761719 C 143.152344 116.066406 143.09375 116.617188 143.402344 116.992188 C 143.574219 117.203125 143.828125 117.316406 144.082031 117.316406 C 144.28125 117.316406 144.476562 117.25 144.640625 117.117188 L 147.695312 114.636719 L 147.695312 128.285156 C 143.457031 131.027344 139.25 133.8125 135.144531 136.597656 C 134.824219 136.8125 134.683594 137.210938 134.796875 137.578125 C 134.910156 137.945312 135.253906 138.195312 135.636719 138.195312 L 187.140625 138.195312 C 187.222656 138.195312 187.304688 138.179688 187.378906 138.15625 C 187.828125 138.113281 188.175781 137.746094 188.175781 137.289062 L 188.175781 125.675781 C 191.886719 127.917969 196.085938 130.378906 201.304688 132.539062 C 210.464844 136.328125 220.640625 138.242188 231.597656 138.242188 C 232.609375 138.242188 233.628906 138.226562 234.65625 138.195312 C 235.035156 138.183594 235.351562 137.929688 235.460938 137.585938 C 235.496094 137.492188 235.515625 137.394531 235.515625 137.289062 L 235.515625 110.113281 C 235.515625 109.800781 235.347656 109.511719 235.078125 109.355469 Z M 152.753906 127.121094 C 160.867188 121.953125 165.226562 119.714844 168.296875 119.136719 C 175 117.871094 179.878906 120.648438 186.417969 124.609375 L 186.417969 136.445312 L 138.5 136.445312 C 143.171875 133.304688 147.957031 130.175781 152.753906 127.121094 Z M 201.980469 130.921875 C 196.449219 128.632812 192.054688 125.980469 188.175781 123.628906 L 188.175781 110.617188 L 210.96875 97.535156 L 233.757812 110.617188 L 233.757812 136.46875 C 222.210938 136.734375 211.523438 134.871094 201.980469 130.921875 Z M 241.210938 108.292969 C 241.046875 108.574219 240.753906 108.730469 240.449219 108.730469 C 240.300781 108.730469 240.148438 108.691406 240.007812 108.613281 L 210.96875 91.941406 L 181.925781 108.613281 C 181.503906 108.855469 180.964844 108.710938 180.722656 108.292969 C 180.480469 107.875 180.625 107.339844 181.046875 107.097656 L 210.527344 90.171875 C 210.800781 90.015625 211.136719 90.015625 211.40625 90.171875 L 240.890625 107.097656 C 241.308594 107.339844 241.453125 107.875 241.210938 108.292969 Z M 214.304688 116.316406 L 207.632812 116.316406 C 207.148438 116.316406 206.753906 116.707031 206.753906 117.1875 L 206.753906 123.824219 C 206.753906 124.308594 207.148438 124.699219 207.632812 124.699219 L 214.304688 124.699219 C 214.792969 124.699219 215.183594 124.308594 215.183594 123.824219 L 215.183594 117.1875 C 215.183594 116.707031 214.792969 116.316406 214.304688 116.316406 Z M 213.425781 122.949219 L 208.511719 122.949219 L 208.511719 118.0625 L 213.425781 118.0625 Z M 203.316406 116.292969 L 196.640625 116.292969 C 196.15625 116.292969 195.761719 116.683594 195.761719 117.167969 L 195.761719 123.804688 C 195.761719 124.285156 196.15625 124.675781 196.640625 124.675781 L 203.316406 124.675781 C 203.800781 124.675781 204.195312 124.285156 204.195312 123.804688 L 204.195312 117.167969 C 204.195312 116.683594 203.800781 116.292969 203.316406 116.292969 Z M 202.4375 122.929688 L 197.519531 122.929688 L 197.519531 118.042969 L 202.4375 118.042969 Z M 225.308594 116.296875 L 218.632812 116.296875 C 218.148438 116.296875 217.753906 116.6875 217.753906 117.171875 L 217.753906 123.808594 C 217.753906 124.292969 218.148438 124.683594 218.632812 124.683594 L 225.308594 124.683594 C 225.792969 124.683594 226.1875 124.292969 226.1875 123.808594 L 226.1875 117.171875 C 226.1875 116.6875 225.792969 116.296875 225.308594 116.296875 Z M 224.429688 122.933594 L 219.515625 122.933594 L 219.515625 118.046875 L 224.429688 118.046875 Z M 224.429688 122.933594 " fill-opacity="1" fill-rule="nonzero"/></g><path fill="#000000" d="M 37.449219 144.253906 L 337.542969 144.253906 C 344.65625 144.253906 351.476562 147.082031 356.503906 152.109375 C 361.53125 157.136719 364.359375 163.957031 364.359375 171.070312 L 364.359375 224.699219 C 364.359375 231.8125 361.53125 238.632812 356.503906 243.660156 C 351.476562 248.691406 344.65625 251.515625 337.542969 251.515625 L 37.449219 251.515625 C 22.640625 251.515625 10.636719 239.507812 10.636719 224.699219 L 10.636719 171.070312 C 10.636719 156.261719 22.640625 144.253906 37.449219 144.253906 Z M 37.449219 144.253906 " fill-opacity="0.69" fill-rule="nonzero"/><g fill="#ffffff" fill-opacity="1"><g transform="translate(49.231084, 214.958092)"><g><path d="M 3.765625 -2.53125 C 3.648438 -3.113281 3.59375 -4.226562 3.59375 -5.875 C 3.59375 -7.519531 3.898438 -9.269531 4.515625 -11.125 L 5.078125 -11.125 C 5.035156 -10.675781 5.015625 -10.222656 5.015625 -9.765625 C 5.015625 -7.253906 5.773438 -5.160156 7.296875 -3.484375 C 8.816406 -1.816406 10.835938 -0.984375 13.359375 -0.984375 C 15.953125 -0.984375 18.082031 -1.765625 19.75 -3.328125 C 21.425781 -4.898438 22.265625 -6.867188 22.265625 -9.234375 C 22.265625 -11.609375 21.460938 -13.539062 19.859375 -15.03125 L 7.984375 -26.03125 C 5.753906 -28.09375 4.640625 -30.585938 4.640625 -33.515625 C 4.640625 -36.441406 5.617188 -38.945312 7.578125 -41.03125 C 9.535156 -43.113281 12.179688 -44.15625 15.515625 -44.15625 C 17.085938 -44.15625 18.863281 -43.945312 20.84375 -43.53125 L 23.25 -43.53125 L 23.25 -35.9375 L 22.703125 -35.9375 C 22.703125 -37.875 22.03125 -39.414062 20.6875 -40.5625 C 19.34375 -41.71875 17.617188 -42.296875 15.515625 -42.296875 C 13.421875 -42.296875 11.660156 -41.59375 10.234375 -40.1875 C 8.804688 -38.789062 8.09375 -37.039062 8.09375 -34.9375 C 8.09375 -32.832031 8.921875 -31.019531 10.578125 -29.5 L 22.765625 -18.25 C 24.816406 -16.351562 25.84375 -13.753906 25.84375 -10.453125 C 25.84375 -7.148438 24.789062 -4.4375 22.6875 -2.3125 C 20.59375 -0.195312 17.789062 0.859375 14.28125 0.859375 C 12.46875 0.859375 10.539062 0.582031 8.5 0.03125 C 6.457031 -0.519531 4.878906 -1.375 3.765625 -2.53125 Z M 3.765625 -2.53125 "/></g></g></g><g fill="#ffffff" fill-opacity="1"><g transform="translate(106.31687, 214.958092)"><g><path d="M 4.515625 -0.625 C 5.585938 -0.625 6.503906 -1.003906 7.265625 -1.765625 C 8.023438 -2.523438 8.425781 -3.441406 8.46875 -4.515625 L 8.46875 -39.140625 C 8.34375 -40.128906 7.910156 -40.960938 7.171875 -41.640625 C 6.429688 -42.328125 5.546875 -42.671875 4.515625 -42.671875 L 3.765625 -42.671875 L 3.703125 -43.296875 L 21.828125 -43.296875 C 23.109375 -43.296875 24.5 -43.414062 26 -43.65625 C 27.507812 -43.90625 28.570312 -44.15625 29.1875 -44.40625 L 29.1875 -36.609375 L 28.578125 -36.609375 L 28.578125 -37.71875 C 28.578125 -38.707031 28.234375 -39.550781 27.546875 -40.25 C 26.867188 -40.957031 26.054688 -41.332031 25.109375 -41.375 L 12.5 -41.375 L 12.5 -22.265625 L 22.9375 -22.265625 C 23.769531 -22.304688 24.472656 -22.613281 25.046875 -23.1875 C 25.617188 -23.769531 25.90625 -24.492188 25.90625 -25.359375 L 25.90625 -26.21875 L 26.53125 -26.21875 L 26.53125 -16.453125 L 25.90625 -16.453125 L 25.90625 -17.375 C 25.90625 -18.195312 25.628906 -18.894531 25.078125 -19.46875 C 24.523438 -20.050781 23.832031 -20.363281 23 -20.40625 L 12.5 -20.40625 L 12.5 -1.921875 L 21.34375 -1.921875 C 24.382812 -1.921875 26.707031 -2.597656 28.3125 -3.953125 C 29.925781 -5.316406 31.269531 -7.335938 32.34375 -10.015625 L 32.96875 -10.015625 L 29.375 0 L 3.703125 0 L 3.703125 -0.625 Z M 4.515625 -0.625 "/></g></g></g><g fill="#ffffff" fill-opacity="1"><g transform="translate(169.710751, 214.958092)"><g><path d="M 32.59375 -31.359375 C 32.59375 -29.546875 32.222656 -27.851562 31.484375 -26.28125 C 30.117188 -23.351562 27.722656 -21.3125 24.296875 -20.15625 C 23.109375 -19.75 22.082031 -19.546875 21.21875 -19.546875 C 18.65625 -19.546875 16.445312 -20.019531 14.59375 -20.96875 L 14.59375 -21.578125 C 17.601562 -20.921875 20.382812 -21.253906 22.9375 -22.578125 C 25.207031 -23.722656 26.753906 -25.617188 27.578125 -28.265625 C 27.828125 -29.085938 27.953125 -29.867188 27.953125 -30.609375 C 27.953125 -31.347656 27.953125 -31.800781 27.953125 -31.96875 C 27.867188 -34.851562 27.101562 -37.148438 25.65625 -38.859375 C 24.21875 -40.578125 22.203125 -41.4375 19.609375 -41.4375 L 12.5 -41.4375 L 12.5 -4.515625 C 12.53125 -3.441406 12.925781 -2.523438 13.6875 -1.765625 C 14.457031 -1.003906 15.378906 -0.625 16.453125 -0.625 L 17.25 -0.625 L 17.25 0 L 3.703125 0 L 3.703125 -0.625 L 4.515625 -0.625 C 5.585938 -0.625 6.503906 -1.003906 7.265625 -1.765625 C 8.023438 -2.523438 8.425781 -3.441406 8.46875 -4.515625 L 8.46875 -39.078125 C 8.34375 -40.109375 7.910156 -40.960938 7.171875 -41.640625 C 6.429688 -42.328125 5.546875 -42.671875 4.515625 -42.671875 L 3.765625 -42.671875 L 3.703125 -43.296875 L 19.859375 -43.296875 C 23.804688 -43.296875 26.914062 -42.234375 29.1875 -40.109375 C 31.457031 -37.984375 32.59375 -35.066406 32.59375 -31.359375 Z M 32.59375 -31.359375 "/></g></g></g><g fill="#ffffff" fill-opacity="1"><g transform="translate(233.104631, 214.958092)"><g><path d="M 4.515625 -0.625 C 5.585938 -0.625 6.503906 -1.003906 7.265625 -1.765625 C 8.023438 -2.523438 8.425781 -3.441406 8.46875 -4.515625 L 8.46875 -38.84375 C 8.425781 -39.914062 8.023438 -40.820312 7.265625 -41.5625 C 6.503906 -42.300781 5.585938 -42.671875 4.515625 -42.671875 L 3.703125 -42.671875 L 3.703125 -43.296875 L 17.25 -43.296875 L 17.25 -42.671875 L 16.453125 -42.671875 C 15.378906 -42.671875 14.457031 -42.300781 13.6875 -41.5625 C 12.925781 -40.820312 12.53125 -39.914062 12.5 -38.84375 L 12.5 -4.515625 C 12.5 -3.441406 12.890625 -2.523438 13.671875 -1.765625 C 14.453125 -1.003906 15.378906 -0.625 16.453125 -0.625 L 17.25 -0.625 L 17.25 0 L 3.703125 0 L 3.703125 -0.625 Z M 4.515625 -0.625 "/></g></g></g><g fill="#ffffff" fill-opacity="1"><g transform="translate(281.717775, 214.958092)"><g><path d="M 44.28125 -0.625 L 44.78125 -0.625 L 44.78125 0 L 30.859375 0 L 30.859375 -0.625 L 31.421875 -0.625 C 32.285156 -0.625 32.929688 -0.898438 33.359375 -1.453125 C 33.796875 -2.003906 34.015625 -2.523438 34.015625 -3.015625 C 34.015625 -3.515625 33.929688 -4.015625 33.765625 -4.515625 L 29.8125 -15.03125 L 13.109375 -15.03125 L 8.96875 -4.453125 C 8.800781 -3.953125 8.71875 -3.460938 8.71875 -2.984375 C 8.71875 -2.515625 8.929688 -2.003906 9.359375 -1.453125 C 9.796875 -0.898438 10.445312 -0.625 11.3125 -0.625 L 11.875 -0.625 L 11.875 0 L -0.5625 0 L -0.5625 -0.625 L 0 -0.625 C 1.03125 -0.625 2.039062 -0.953125 3.03125 -1.609375 C 4.019531 -2.265625 4.820312 -3.234375 5.4375 -4.515625 L 19.421875 -37.78125 C 20.941406 -41.125 21.703125 -43.25 21.703125 -44.15625 L 22.265625 -44.15625 L 38.84375 -4.515625 C 39.414062 -3.234375 40.195312 -2.265625 41.1875 -1.609375 C 42.175781 -0.953125 43.207031 -0.625 44.28125 -0.625 Z M 13.859375 -16.890625 L 29.0625 -16.890625 L 21.640625 -36.734375 Z M 13.859375 -16.890625 "/></g></g></g><path fill="#d9d9d9" d="M 139.136719 254.964844 L 235.832031 254.964844 C 239.175781 254.964844 241.886719 257.671875 241.886719 261.015625 L 241.886719 273.117188 C 241.886719 276.460938 239.175781 279.171875 235.832031 279.171875 L 139.136719 279.171875 C 135.792969 279.171875 133.085938 276.460938 133.085938 273.117188 L 133.085938 261.015625 C 133.085938 257.671875 135.792969 254.964844 139.136719 254.964844 Z M 139.136719 254.964844 " fill-opacity="0.5" fill-rule="nonzero"/><g fill="#333333" fill-opacity="1"><g transform="translate(142.371197, 272.131028)"><g><path d="M 8.296875 -5.390625 C 8.984375 -5.242188 9.507812 -4.945312 9.875 -4.5 C 10.25 -4.0625 10.4375 -3.492188 10.4375 -2.796875 C 10.4375 -1.898438 10.101562 -1.207031 9.4375 -0.71875 C 8.78125 -0.238281 7.804688 0 6.515625 0 L 1.703125 0 L 1.703125 -10.453125 L 6.21875 -10.453125 C 7.382812 -10.453125 8.285156 -10.21875 8.921875 -9.75 C 9.566406 -9.28125 9.890625 -8.617188 9.890625 -7.765625 C 9.890625 -7.191406 9.742188 -6.703125 9.453125 -6.296875 C 9.171875 -5.890625 8.785156 -5.585938 8.296875 -5.390625 Z M 2.8125 -9.546875 L 2.8125 -5.75 L 6.140625 -5.75 C 6.984375 -5.75 7.632812 -5.910156 8.09375 -6.234375 C 8.550781 -6.554688 8.78125 -7.023438 8.78125 -7.640625 C 8.78125 -8.265625 8.550781 -8.738281 8.09375 -9.0625 C 7.632812 -9.382812 6.984375 -9.546875 6.140625 -9.546875 Z M 6.5 -0.90625 C 7.4375 -0.90625 8.140625 -1.0625 8.609375 -1.375 C 9.085938 -1.695312 9.328125 -2.203125 9.328125 -2.890625 C 9.328125 -4.191406 8.382812 -4.84375 6.5 -4.84375 L 2.8125 -4.84375 L 2.8125 -0.90625 Z M 6.5 -0.90625 "/></g></g></g><g fill="#333333" fill-opacity="1"><g transform="translate(160.254352, 272.131028)"><g><path d="M 8.84375 0 L 6.453125 -3.359375 C 6.179688 -3.328125 5.898438 -3.3125 5.609375 -3.3125 L 2.8125 -3.3125 L 2.8125 0 L 1.703125 0 L 1.703125 -10.453125 L 5.609375 -10.453125 C 6.953125 -10.453125 8 -10.132812 8.75 -9.5 C 9.507812 -8.863281 9.890625 -7.988281 9.890625 -6.875 C 9.890625 -6.050781 9.679688 -5.359375 9.265625 -4.796875 C 8.859375 -4.234375 8.269531 -3.828125 7.5 -3.578125 L 10.046875 0 Z M 5.59375 -4.25 C 6.625 -4.25 7.410156 -4.476562 7.953125 -4.9375 C 8.503906 -5.394531 8.78125 -6.039062 8.78125 -6.875 C 8.78125 -7.71875 8.503906 -8.363281 7.953125 -8.8125 C 7.410156 -9.269531 6.625 -9.5 5.59375 -9.5 L 2.8125 -9.5 L 2.8125 -4.25 Z M 5.59375 -4.25 "/></g></g></g><g fill="#333333" fill-opacity="1"><g transform="translate(177.674406, 272.131028)"><g><path d="M 1.703125 -10.453125 L 2.8125 -10.453125 L 2.8125 0 L 1.703125 0 Z M 1.703125 -10.453125 "/></g></g></g><g fill="#333333" fill-opacity="1"><g transform="translate(188.805396, 272.131028)"><g><path d="M 6.25 0.09375 C 5.207031 0.09375 4.269531 -0.132812 3.4375 -0.59375 C 2.613281 -1.050781 1.960938 -1.6875 1.484375 -2.5 C 1.015625 -3.3125 0.78125 -4.222656 0.78125 -5.234375 C 0.78125 -6.234375 1.015625 -7.140625 1.484375 -7.953125 C 1.960938 -8.765625 2.617188 -9.398438 3.453125 -9.859375 C 4.285156 -10.316406 5.222656 -10.546875 6.265625 -10.546875 C 7.035156 -10.546875 7.75 -10.414062 8.40625 -10.15625 C 9.0625 -9.894531 9.617188 -9.515625 10.078125 -9.015625 L 9.375 -8.3125 C 8.5625 -9.144531 7.53125 -9.5625 6.28125 -9.5625 C 5.457031 -9.5625 4.707031 -9.367188 4.03125 -8.984375 C 3.351562 -8.609375 2.820312 -8.09375 2.4375 -7.4375 C 2.050781 -6.78125 1.859375 -6.046875 1.859375 -5.234375 C 1.859375 -4.410156 2.050781 -3.671875 2.4375 -3.015625 C 2.820312 -2.359375 3.351562 -1.835938 4.03125 -1.453125 C 4.707031 -1.078125 5.457031 -0.890625 6.28125 -0.890625 C 7.539062 -0.890625 8.570312 -1.3125 9.375 -2.15625 L 10.078125 -1.453125 C 9.617188 -0.953125 9.054688 -0.566406 8.390625 -0.296875 C 7.734375 -0.0351562 7.019531 0.09375 6.25 0.09375 Z M 6.25 0.09375 "/></g></g></g><g fill="#333333" fill-opacity="1"><g transform="translate(206.165706, 272.131028)"><g><path d="M 4.9375 -4.921875 L 2.8125 -2.75 L 2.8125 0 L 1.703125 0 L 1.703125 -10.453125 L 2.8125 -10.453125 L 2.8125 -4.140625 L 8.953125 -10.453125 L 10.21875 -10.453125 L 5.6875 -5.71875 L 10.53125 0 L 9.21875 0 Z M 4.9375 -4.921875 "/></g></g></g><g fill="#333333" fill-opacity="1"><g transform="translate(223.406512, 272.131028)"><g><path d="M 4.578125 0.09375 C 3.804688 0.09375 3.0625 -0.03125 2.34375 -0.28125 C 1.632812 -0.53125 1.085938 -0.859375 0.703125 -1.265625 L 1.140625 -2.125 C 1.515625 -1.738281 2.015625 -1.425781 2.640625 -1.1875 C 3.265625 -0.957031 3.910156 -0.84375 4.578125 -0.84375 C 5.515625 -0.84375 6.21875 -1.015625 6.6875 -1.359375 C 7.15625 -1.703125 7.390625 -2.148438 7.390625 -2.703125 C 7.390625 -3.117188 7.257812 -3.453125 7 -3.703125 C 6.75 -3.953125 6.441406 -4.144531 6.078125 -4.28125 C 5.710938 -4.414062 5.203125 -4.5625 4.546875 -4.71875 C 3.753906 -4.914062 3.125 -5.109375 2.65625 -5.296875 C 2.1875 -5.484375 1.785156 -5.765625 1.453125 -6.140625 C 1.117188 -6.515625 0.953125 -7.023438 0.953125 -7.671875 C 0.953125 -8.203125 1.09375 -8.679688 1.375 -9.109375 C 1.65625 -9.546875 2.082031 -9.894531 2.65625 -10.15625 C 3.238281 -10.414062 3.957031 -10.546875 4.8125 -10.546875 C 5.40625 -10.546875 5.988281 -10.460938 6.5625 -10.296875 C 7.132812 -10.128906 7.628906 -9.90625 8.046875 -9.625 L 7.671875 -8.734375 C 7.234375 -9.023438 6.765625 -9.242188 6.265625 -9.390625 C 5.773438 -9.535156 5.289062 -9.609375 4.8125 -9.609375 C 3.894531 -9.609375 3.203125 -9.429688 2.734375 -9.078125 C 2.273438 -8.722656 2.046875 -8.265625 2.046875 -7.703125 C 2.046875 -7.285156 2.171875 -6.945312 2.421875 -6.6875 C 2.679688 -6.4375 3 -6.242188 3.375 -6.109375 C 3.757812 -5.984375 4.273438 -5.835938 4.921875 -5.671875 C 5.691406 -5.484375 6.3125 -5.296875 6.78125 -5.109375 C 7.257812 -4.929688 7.660156 -4.65625 7.984375 -4.28125 C 8.316406 -3.90625 8.484375 -3.398438 8.484375 -2.765625 C 8.484375 -2.234375 8.34375 -1.75 8.0625 -1.3125 C 7.78125 -0.882812 7.34375 -0.539062 6.75 -0.28125 C 6.164062 -0.03125 5.441406 0.09375 4.578125 0.09375 Z M 4.578125 0.09375 "/></g></g></g></svg>