<svg xmlns="http://www.w3.org/2000/svg" xmlns:xlink="http://www.w3.org/1999/xlink" width="576" zoomAndPan="magnify" viewBox="0 0 432 200.249992" height="267" preserveAspectRatio="xMidYMid meet" version="1.0"><defs><g/><clipPath id="3db14f0ff6"><path d="M 163 12 L 269.46875 12 L 269.46875 61.269531 L 163 61.269531 Z M 163 12 " clip-rule="nonzero"/></clipPath></defs><path fill="#8c999b" d="M 201.332031 2.351562 C 204.691406 6.984375 212.640625 34.71875 197.65625 34.71875 C 182.667969 34.71875 190.621094 6.984375 193.980469 2.351562 C 195.167969 0.710938 196.566406 0 197.65625 0 C 198.746094 0 200.144531 0.710938 201.332031 2.351562 Z M 201.332031 2.351562 " fill-opacity="1" fill-rule="nonzero"/><path fill="#d1bb9b" d="M 180.578125 13.257812 C 183.9375 17.890625 191.890625 45.628906 176.902344 45.628906 C 161.917969 45.628906 169.871094 17.890625 173.226562 13.257812 C 174.417969 11.621094 175.816406 10.90625 176.902344 10.90625 C 177.992188 10.90625 179.390625 11.621094 180.578125 13.257812 Z M 180.578125 13.257812 " fill-opacity="1" fill-rule="nonzero"/><g clip-path="url(#3db14f0ff6)"><path fill="#333333" d="M 263.082031 32.5 L 239.503906 18.960938 C 239.230469 18.804688 238.898438 18.804688 238.625 18.960938 L 215.042969 32.5 C 214.773438 32.65625 214.605469 32.941406 214.605469 33.253906 L 214.605469 45.65625 C 209.109375 42.351562 204.398438 39.839844 198.53125 40.234375 L 198.53125 26.902344 L 201.597656 29.390625 C 201.761719 29.523438 201.957031 29.589844 202.152344 29.589844 C 202.40625 29.589844 202.660156 29.480469 202.832031 29.269531 C 203.136719 28.894531 203.082031 28.347656 202.707031 28.042969 L 198.53125 24.652344 L 198.53125 20.945312 L 201.585938 23.421875 C 201.746094 23.554688 201.941406 23.621094 202.136719 23.621094 C 202.390625 23.621094 202.644531 23.511719 202.816406 23.300781 C 203.125 22.925781 203.066406 22.378906 202.691406 22.074219 L 198.53125 18.695312 L 198.53125 14.847656 L 201.566406 17.308594 C 201.730469 17.441406 201.925781 17.507812 202.121094 17.507812 C 202.375 17.507812 202.625 17.398438 202.800781 17.1875 C 203.105469 16.8125 203.050781 16.265625 202.675781 15.960938 L 198.269531 12.382812 C 198.199219 12.316406 198.121094 12.257812 198.03125 12.21875 C 197.726562 12.074219 197.363281 12.117188 197.101562 12.328125 L 192.640625 15.949219 C 192.265625 16.253906 192.210938 16.804688 192.515625 17.175781 C 192.820312 17.546875 193.375 17.605469 193.75 17.300781 L 196.777344 14.839844 L 196.777344 18.648438 L 192.640625 22.003906 C 192.265625 22.308594 192.210938 22.859375 192.515625 23.230469 C 192.691406 23.441406 192.941406 23.550781 193.195312 23.550781 C 193.390625 23.550781 193.585938 23.488281 193.75 23.355469 L 196.777344 20.898438 L 196.777344 24.605469 L 192.628906 27.972656 C 192.253906 28.277344 192.195312 28.828125 192.503906 29.199219 C 192.675781 29.410156 192.929688 29.519531 193.183594 29.519531 C 193.375 29.519531 193.574219 29.457031 193.734375 29.324219 L 196.777344 26.851562 L 196.777344 40.433594 C 196.597656 40.464844 196.410156 40.492188 196.226562 40.527344 C 192.882812 41.160156 188.519531 43.382812 180.121094 48.730469 C 179.339844 49.226562 178.558594 49.726562 177.78125 50.226562 L 177.78125 37.808594 L 180.847656 40.296875 C 181.011719 40.429688 181.207031 40.496094 181.402344 40.496094 C 181.65625 40.496094 181.90625 40.386719 182.082031 40.175781 C 182.386719 39.800781 182.332031 39.253906 181.957031 38.949219 L 177.78125 35.558594 L 177.78125 31.851562 L 180.832031 34.332031 C 180.996094 34.460938 181.191406 34.527344 181.386719 34.527344 C 181.640625 34.527344 181.890625 34.417969 182.066406 34.207031 C 182.371094 33.832031 182.316406 33.285156 181.941406 32.980469 L 177.78125 29.601562 L 177.78125 25.753906 L 180.816406 28.21875 C 180.976562 28.347656 181.175781 28.414062 181.367188 28.414062 C 181.621094 28.414062 181.875 28.304688 182.046875 28.09375 C 182.355469 27.71875 182.296875 27.171875 181.921875 26.867188 L 177.519531 23.292969 C 177.449219 23.222656 177.371094 23.167969 177.28125 23.125 C 176.972656 22.980469 176.613281 23.023438 176.351562 23.234375 L 171.890625 26.855469 C 171.515625 27.160156 171.457031 27.710938 171.765625 28.082031 C 172.070312 28.453125 172.621094 28.511719 172.996094 28.207031 L 176.027344 25.746094 L 176.027344 29.554688 L 171.890625 32.910156 C 171.515625 33.214844 171.460938 33.765625 171.765625 34.136719 C 171.9375 34.347656 172.191406 34.457031 172.445312 34.457031 C 172.640625 34.457031 172.835938 34.394531 173 34.261719 L 176.027344 31.804688 L 176.027344 35.511719 L 171.875 38.878906 C 171.5 39.183594 171.445312 39.734375 171.75 40.105469 C 171.925781 40.316406 172.175781 40.425781 172.429688 40.425781 C 172.625 40.425781 172.820312 40.363281 172.984375 40.230469 L 176.027344 37.761719 L 176.027344 51.355469 C 171.804688 54.085938 167.617188 56.863281 163.523438 59.636719 C 163.207031 59.851562 163.066406 60.25 163.179688 60.613281 C 163.292969 60.980469 163.632812 61.230469 164.015625 61.230469 L 215.324219 61.230469 C 215.410156 61.230469 215.488281 61.214844 215.566406 61.191406 C 216.011719 61.148438 216.359375 60.78125 216.359375 60.328125 L 216.359375 48.757812 C 220.054688 50.992188 224.238281 53.441406 229.4375 55.59375 C 238.5625 59.367188 248.703125 61.277344 259.617188 61.277344 C 260.625 61.277344 261.640625 61.261719 262.664062 61.226562 C 263.042969 61.214844 263.355469 60.964844 263.464844 60.625 C 263.5 60.53125 263.523438 60.433594 263.523438 60.328125 L 263.523438 33.253906 C 263.523438 32.941406 263.355469 32.65625 263.082031 32.5 Z M 181.066406 50.195312 C 189.152344 45.050781 193.492188 42.820312 196.554688 42.242188 C 203.234375 40.980469 208.089844 43.75 214.605469 47.695312 L 214.605469 59.484375 L 166.867188 59.484375 C 171.523438 56.355469 176.289062 53.238281 181.066406 50.195312 Z M 230.109375 53.984375 C 224.601562 51.703125 220.222656 49.0625 216.359375 46.71875 L 216.359375 33.757812 L 239.0625 20.722656 L 261.769531 33.757812 L 261.769531 59.507812 C 250.265625 59.773438 239.617188 57.917969 230.109375 53.984375 Z M 269.195312 31.4375 C 269.03125 31.71875 268.738281 31.875 268.4375 31.875 C 268.285156 31.875 268.136719 31.835938 268 31.757812 L 239.0625 15.148438 L 210.128906 31.757812 C 209.710938 32 209.175781 31.855469 208.933594 31.4375 C 208.691406 31.023438 208.835938 30.488281 209.253906 30.25 L 238.625 13.386719 C 238.898438 13.230469 239.230469 13.230469 239.503906 13.386719 L 268.875 30.25 C 269.292969 30.488281 269.4375 31.023438 269.195312 31.4375 Z M 242.390625 39.429688 L 235.742188 39.429688 C 235.257812 39.429688 234.867188 39.820312 234.867188 40.300781 L 234.867188 46.914062 C 234.867188 47.394531 235.257812 47.785156 235.742188 47.785156 L 242.390625 47.785156 C 242.875 47.785156 243.265625 47.394531 243.265625 46.914062 L 243.265625 40.300781 C 243.265625 39.820312 242.875 39.429688 242.390625 39.429688 Z M 241.515625 46.042969 L 236.617188 46.042969 L 236.617188 41.171875 L 241.515625 41.171875 Z M 231.441406 39.410156 L 224.792969 39.410156 C 224.308594 39.410156 223.917969 39.796875 223.917969 40.28125 L 223.917969 46.890625 C 223.917969 47.371094 224.308594 47.761719 224.792969 47.761719 L 231.441406 47.761719 C 231.925781 47.761719 232.316406 47.371094 232.316406 46.890625 L 232.316406 40.28125 C 232.316406 39.796875 231.925781 39.410156 231.441406 39.410156 Z M 230.566406 46.019531 L 225.667969 46.019531 L 225.667969 41.152344 L 230.566406 41.152344 Z M 253.351562 39.414062 L 246.703125 39.414062 C 246.21875 39.414062 245.828125 39.804688 245.828125 40.285156 L 245.828125 46.894531 C 245.828125 47.378906 246.21875 47.765625 246.703125 47.765625 L 253.351562 47.765625 C 253.835938 47.765625 254.226562 47.378906 254.226562 46.894531 L 254.226562 40.285156 C 254.226562 39.804688 253.835938 39.414062 253.351562 39.414062 Z M 252.476562 46.023438 L 247.578125 46.023438 L 247.578125 41.15625 L 252.476562 41.15625 Z M 252.476562 46.023438 " fill-opacity="1" fill-rule="nonzero"/></g><path fill="#000000" d="M 66.195312 67.265625 L 365.167969 67.265625 C 372.253906 67.265625 379.046875 70.082031 384.058594 75.09375 C 389.066406 80.101562 391.882812 86.898438 391.882812 93.980469 L 391.882812 147.410156 C 391.882812 154.496094 389.066406 161.292969 384.058594 166.300781 C 379.046875 171.3125 372.253906 174.125 365.167969 174.125 L 66.195312 174.125 C 51.441406 174.125 39.480469 162.164062 39.480469 147.410156 L 39.480469 93.980469 C 39.480469 79.226562 51.441406 67.265625 66.195312 67.265625 Z M 66.195312 67.265625 " fill-opacity="0.69" fill-rule="nonzero"/><g fill="#ffffff" fill-opacity="1"><g transform="translate(77.931636, 137.705952)"><g><path d="M 3.765625 -2.53125 C 3.640625 -3.101562 3.578125 -4.207031 3.578125 -5.84375 C 3.578125 -7.488281 3.882812 -9.238281 4.5 -11.09375 L 5.046875 -11.09375 C 5.003906 -10.632812 4.984375 -10.179688 4.984375 -9.734375 C 4.984375 -7.222656 5.742188 -5.132812 7.265625 -3.46875 C 8.785156 -1.8125 10.800781 -0.984375 13.3125 -0.984375 C 15.894531 -0.984375 18.015625 -1.765625 19.671875 -3.328125 C 21.335938 -4.890625 22.171875 -6.847656 22.171875 -9.203125 C 22.171875 -11.566406 21.375 -13.488281 19.78125 -14.96875 L 7.953125 -25.9375 C 5.734375 -27.988281 4.625 -30.472656 4.625 -33.390625 C 4.625 -36.304688 5.597656 -38.800781 7.546875 -40.875 C 9.492188 -42.945312 12.132812 -43.984375 15.46875 -43.984375 C 17.03125 -43.984375 18.796875 -43.78125 20.765625 -43.375 L 23.171875 -43.375 L 23.171875 -35.796875 L 22.609375 -35.796875 C 22.609375 -37.722656 21.941406 -39.257812 20.609375 -40.40625 C 19.273438 -41.5625 17.5625 -42.140625 15.46875 -42.140625 C 13.375 -42.140625 11.617188 -41.441406 10.203125 -40.046875 C 8.785156 -38.648438 8.078125 -36.90625 8.078125 -34.8125 C 8.078125 -32.71875 8.894531 -30.910156 10.53125 -29.390625 L 22.671875 -18.171875 C 24.722656 -16.285156 25.75 -13.695312 25.75 -10.40625 C 25.75 -7.125 24.703125 -4.425781 22.609375 -2.3125 C 20.515625 -0.195312 17.722656 0.859375 14.234375 0.859375 C 12.421875 0.859375 10.5 0.582031 8.46875 0.03125 C 6.4375 -0.519531 4.867188 -1.375 3.765625 -2.53125 Z M 3.765625 -2.53125 "/></g></g></g><g fill="#ffffff" fill-opacity="1"><g transform="translate(134.804415, 137.705952)"><g><path d="M 4.5 -0.609375 C 5.5625 -0.609375 6.472656 -0.988281 7.234375 -1.75 C 7.992188 -2.507812 8.394531 -3.425781 8.4375 -4.5 L 8.4375 -39 C 8.3125 -39.988281 7.878906 -40.820312 7.140625 -41.5 C 6.398438 -42.175781 5.519531 -42.515625 4.5 -42.515625 L 3.765625 -42.515625 L 3.703125 -43.125 L 21.75 -43.125 C 23.019531 -43.125 24.40625 -43.242188 25.90625 -43.484375 C 27.40625 -43.734375 28.460938 -43.984375 29.078125 -44.234375 L 29.078125 -36.46875 L 28.46875 -36.46875 L 28.46875 -37.578125 C 28.46875 -38.566406 28.128906 -39.410156 27.453125 -40.109375 C 26.773438 -40.804688 25.960938 -41.175781 25.015625 -41.21875 L 12.4375 -41.21875 L 12.4375 -22.171875 L 22.859375 -22.171875 C 23.679688 -22.210938 24.378906 -22.519531 24.953125 -23.09375 C 25.523438 -23.675781 25.8125 -24.398438 25.8125 -25.265625 L 25.8125 -26.125 L 26.4375 -26.125 L 26.4375 -16.390625 L 25.8125 -16.390625 L 25.8125 -17.3125 C 25.8125 -18.132812 25.535156 -18.832031 24.984375 -19.40625 C 24.429688 -19.976562 23.742188 -20.285156 22.921875 -20.328125 L 12.4375 -20.328125 L 12.4375 -1.90625 L 21.25 -1.90625 C 24.289062 -1.90625 26.613281 -2.582031 28.21875 -3.9375 C 29.820312 -5.289062 31.15625 -7.304688 32.21875 -9.984375 L 32.84375 -9.984375 L 29.265625 0 L 3.703125 0 L 3.703125 -0.609375 Z M 4.5 -0.609375 "/></g></g></g><g fill="#ffffff" fill-opacity="1"><g transform="translate(197.96175, 137.705952)"><g><path d="M 32.46875 -31.234375 C 32.46875 -29.429688 32.097656 -27.75 31.359375 -26.1875 C 30.003906 -23.269531 27.625 -21.234375 24.21875 -20.078125 C 23.019531 -19.671875 21.988281 -19.46875 21.125 -19.46875 C 18.582031 -19.46875 16.390625 -19.941406 14.546875 -20.890625 L 14.546875 -21.5 C 17.535156 -20.84375 20.304688 -21.171875 22.859375 -22.484375 C 25.117188 -23.640625 26.660156 -25.53125 27.484375 -28.15625 C 27.722656 -28.976562 27.84375 -29.757812 27.84375 -30.5 C 27.84375 -31.238281 27.84375 -31.691406 27.84375 -31.859375 C 27.757812 -34.734375 27 -37.019531 25.5625 -38.71875 C 24.125 -40.425781 22.113281 -41.28125 19.53125 -41.28125 L 12.4375 -41.28125 L 12.4375 -4.5 C 12.476562 -3.425781 12.878906 -2.507812 13.640625 -1.75 C 14.398438 -0.988281 15.316406 -0.609375 16.390625 -0.609375 L 17.1875 -0.609375 L 17.1875 0 L 3.703125 0 L 3.703125 -0.609375 L 4.5 -0.609375 C 5.5625 -0.609375 6.472656 -0.988281 7.234375 -1.75 C 7.992188 -2.507812 8.394531 -3.425781 8.4375 -4.5 L 8.4375 -38.9375 C 8.3125 -39.96875 7.878906 -40.820312 7.140625 -41.5 C 6.398438 -42.175781 5.519531 -42.515625 4.5 -42.515625 L 3.765625 -42.515625 L 3.703125 -43.125 L 19.78125 -43.125 C 23.71875 -43.125 26.816406 -42.066406 29.078125 -39.953125 C 31.335938 -37.835938 32.46875 -34.929688 32.46875 -31.234375 Z M 32.46875 -31.234375 "/></g></g></g><g fill="#ffffff" fill-opacity="1"><g transform="translate(261.119086, 137.705952)"><g><path d="M 4.5 -0.609375 C 5.5625 -0.609375 6.472656 -0.988281 7.234375 -1.75 C 7.992188 -2.507812 8.394531 -3.425781 8.4375 -4.5 L 8.4375 -38.6875 C 8.394531 -39.757812 7.992188 -40.664062 7.234375 -41.40625 C 6.472656 -42.144531 5.5625 -42.515625 4.5 -42.515625 L 3.703125 -42.515625 L 3.703125 -43.125 L 17.1875 -43.125 L 17.1875 -42.515625 L 16.390625 -42.515625 C 15.316406 -42.515625 14.398438 -42.144531 13.640625 -41.40625 C 12.878906 -40.664062 12.476562 -39.757812 12.4375 -38.6875 L 12.4375 -4.5 C 12.4375 -3.425781 12.828125 -2.507812 13.609375 -1.75 C 14.390625 -0.988281 15.316406 -0.609375 16.390625 -0.609375 L 17.1875 -0.609375 L 17.1875 0 L 3.703125 0 L 3.703125 -0.609375 Z M 4.5 -0.609375 "/></g></g></g><g fill="#ffffff" fill-opacity="1"><g transform="translate(309.550836, 137.705952)"><g><path d="M 44.109375 -0.609375 L 44.609375 -0.609375 L 44.609375 0 L 30.75 0 L 30.75 -0.609375 L 31.296875 -0.609375 C 32.160156 -0.609375 32.804688 -0.882812 33.234375 -1.4375 C 33.671875 -2 33.890625 -2.523438 33.890625 -3.015625 C 33.890625 -3.515625 33.804688 -4.007812 33.640625 -4.5 L 29.703125 -14.96875 L 13.0625 -14.96875 L 8.9375 -4.4375 C 8.769531 -3.945312 8.6875 -3.460938 8.6875 -2.984375 C 8.6875 -2.515625 8.898438 -2 9.328125 -1.4375 C 9.765625 -0.882812 10.414062 -0.609375 11.28125 -0.609375 L 11.828125 -0.609375 L 11.828125 0 L -0.546875 0 L -0.546875 -0.609375 L 0 -0.609375 C 1.03125 -0.609375 2.035156 -0.9375 3.015625 -1.59375 C 4.003906 -2.257812 4.804688 -3.226562 5.421875 -4.5 L 19.34375 -37.640625 C 20.863281 -40.972656 21.625 -43.085938 21.625 -43.984375 L 22.1875 -43.984375 L 38.6875 -4.5 C 39.257812 -3.226562 40.039062 -2.257812 41.03125 -1.59375 C 42.019531 -0.9375 43.046875 -0.609375 44.109375 -0.609375 Z M 13.796875 -16.8125 L 28.953125 -16.8125 L 21.5625 -36.59375 Z M 13.796875 -16.8125 "/></g></g></g><path fill="#d9d9d9" d="M 127.007812 178.609375 L 293.417969 178.609375 C 295.882812 178.609375 297.882812 180.609375 297.882812 183.074219 L 297.882812 192.003906 C 297.882812 194.46875 295.882812 196.46875 293.417969 196.46875 L 127.007812 196.46875 C 124.542969 196.46875 122.542969 194.46875 122.542969 192.003906 L 122.542969 183.074219 C 122.542969 180.609375 124.542969 178.609375 127.007812 178.609375 Z M 127.007812 178.609375 " fill-opacity="0.5" fill-rule="nonzero"/><g fill="#333333" fill-opacity="1"><g transform="translate(129.394267, 191.275205)"><g><path d="M 1.25 -7.71875 L 4.390625 -7.71875 C 5.210938 -7.71875 5.929688 -7.550781 6.546875 -7.21875 C 7.171875 -6.894531 7.65625 -6.441406 8 -5.859375 C 8.351562 -5.273438 8.53125 -4.609375 8.53125 -3.859375 C 8.53125 -3.109375 8.351562 -2.441406 8 -1.859375 C 7.65625 -1.273438 7.171875 -0.816406 6.546875 -0.484375 C 5.929688 -0.160156 5.210938 0 4.390625 0 L 1.25 0 Z M 4.34375 -0.703125 C 5.019531 -0.703125 5.613281 -0.835938 6.125 -1.109375 C 6.632812 -1.378906 7.023438 -1.75 7.296875 -2.21875 C 7.578125 -2.695312 7.71875 -3.242188 7.71875 -3.859375 C 7.71875 -4.472656 7.578125 -5.015625 7.296875 -5.484375 C 7.023438 -5.960938 6.632812 -6.332031 6.125 -6.59375 C 5.613281 -6.863281 5.019531 -7 4.34375 -7 L 2.078125 -7 L 2.078125 -0.703125 Z M 4.34375 -0.703125 "/></g></g></g><g fill="#333333" fill-opacity="1"><g transform="translate(143.381588, 191.275205)"><g><path d="M 1.25 -7.71875 L 2.078125 -7.71875 L 2.078125 0 L 1.25 0 Z M 1.25 -7.71875 "/></g></g></g><g fill="#333333" fill-opacity="1"><g transform="translate(151.593786, 191.275205)"><g><path d="M 3.375 0.0625 C 2.800781 0.0625 2.253906 -0.0234375 1.734375 -0.203125 C 1.210938 -0.390625 0.804688 -0.632812 0.515625 -0.9375 L 0.84375 -1.5625 C 1.113281 -1.28125 1.476562 -1.050781 1.9375 -0.875 C 2.40625 -0.707031 2.882812 -0.625 3.375 -0.625 C 4.070312 -0.625 4.59375 -0.75 4.9375 -1 C 5.28125 -1.257812 5.453125 -1.59375 5.453125 -2 C 5.453125 -2.300781 5.359375 -2.539062 5.171875 -2.71875 C 4.984375 -2.90625 4.753906 -3.050781 4.484375 -3.15625 C 4.210938 -3.257812 3.832031 -3.367188 3.34375 -3.484375 C 2.769531 -3.628906 2.304688 -3.769531 1.953125 -3.90625 C 1.609375 -4.039062 1.3125 -4.25 1.0625 -4.53125 C 0.820312 -4.8125 0.703125 -5.1875 0.703125 -5.65625 C 0.703125 -6.050781 0.804688 -6.40625 1.015625 -6.71875 C 1.222656 -7.039062 1.535156 -7.296875 1.953125 -7.484375 C 2.378906 -7.679688 2.910156 -7.78125 3.546875 -7.78125 C 3.984375 -7.78125 4.410156 -7.71875 4.828125 -7.59375 C 5.253906 -7.46875 5.625 -7.300781 5.9375 -7.09375 L 5.65625 -6.4375 C 5.332031 -6.65625 4.988281 -6.816406 4.625 -6.921875 C 4.257812 -7.023438 3.898438 -7.078125 3.546875 -7.078125 C 2.867188 -7.078125 2.359375 -6.945312 2.015625 -6.6875 C 1.679688 -6.425781 1.515625 -6.09375 1.515625 -5.6875 C 1.515625 -5.375 1.609375 -5.125 1.796875 -4.9375 C 1.984375 -4.75 2.21875 -4.601562 2.5 -4.5 C 2.78125 -4.40625 3.160156 -4.300781 3.640625 -4.1875 C 4.203125 -4.050781 4.65625 -3.910156 5 -3.765625 C 5.351562 -3.628906 5.648438 -3.425781 5.890625 -3.15625 C 6.128906 -2.882812 6.25 -2.507812 6.25 -2.03125 C 6.25 -1.644531 6.144531 -1.289062 5.9375 -0.96875 C 5.726562 -0.65625 5.40625 -0.40625 4.96875 -0.21875 C 4.539062 -0.03125 4.007812 0.0625 3.375 0.0625 Z M 3.375 0.0625 "/></g></g></g><g fill="#333333" fill-opacity="1"><g transform="translate(163.255634, 191.275205)"><g><path d="M 6.703125 -0.703125 L 6.703125 0 L 1.25 0 L 1.25 -7.71875 L 6.546875 -7.71875 L 6.546875 -7 L 2.078125 -7 L 2.078125 -4.265625 L 6.0625 -4.265625 L 6.0625 -3.5625 L 2.078125 -3.5625 L 2.078125 -0.703125 Z M 6.703125 -0.703125 "/></g></g></g><g fill="#333333" fill-opacity="1"><g transform="translate(175.512623, 191.275205)"><g><path d="M 7.703125 -7.71875 L 7.703125 0 L 7.03125 0 L 2.078125 -6.25 L 2.078125 0 L 1.25 0 L 1.25 -7.71875 L 1.921875 -7.71875 L 6.890625 -1.453125 L 6.890625 -7.71875 Z M 5.21875 -8.40625 C 5.050781 -8.40625 4.898438 -8.441406 4.765625 -8.515625 C 4.640625 -8.597656 4.5 -8.707031 4.34375 -8.84375 C 4.207031 -8.957031 4.101562 -9.035156 4.03125 -9.078125 C 3.957031 -9.128906 3.875 -9.15625 3.78125 -9.15625 C 3.613281 -9.15625 3.476562 -9.09375 3.375 -8.96875 C 3.269531 -8.84375 3.210938 -8.671875 3.203125 -8.453125 L 2.734375 -8.453125 C 2.753906 -8.816406 2.847656 -9.109375 3.015625 -9.328125 C 3.191406 -9.546875 3.429688 -9.65625 3.734375 -9.65625 C 3.898438 -9.65625 4.046875 -9.617188 4.171875 -9.546875 C 4.296875 -9.472656 4.445312 -9.363281 4.625 -9.21875 C 4.738281 -9.113281 4.832031 -9.035156 4.90625 -8.984375 C 4.988281 -8.929688 5.078125 -8.90625 5.171875 -8.90625 C 5.328125 -8.90625 5.457031 -8.96875 5.5625 -9.09375 C 5.664062 -9.21875 5.726562 -9.382812 5.75 -9.59375 L 6.21875 -9.59375 C 6.195312 -9.238281 6.097656 -8.953125 5.921875 -8.734375 C 5.753906 -8.515625 5.519531 -8.40625 5.21875 -8.40625 Z M 5.21875 -8.40625 "/></g></g></g><g fill="#333333" fill-opacity="1"><g transform="translate(189.356674, 191.275205)"><g><path d="M 4.625 0.0625 C 3.863281 0.0625 3.171875 -0.101562 2.546875 -0.4375 C 1.929688 -0.78125 1.445312 -1.25 1.09375 -1.84375 C 0.75 -2.445312 0.578125 -3.117188 0.578125 -3.859375 C 0.578125 -4.597656 0.75 -5.265625 1.09375 -5.859375 C 1.445312 -6.453125 1.929688 -6.921875 2.546875 -7.265625 C 3.171875 -7.609375 3.863281 -7.78125 4.625 -7.78125 C 5.382812 -7.78125 6.070312 -7.609375 6.6875 -7.265625 C 7.300781 -6.929688 7.785156 -6.460938 8.140625 -5.859375 C 8.492188 -5.265625 8.671875 -4.597656 8.671875 -3.859375 C 8.671875 -3.117188 8.492188 -2.445312 8.140625 -1.84375 C 7.785156 -1.25 7.300781 -0.78125 6.6875 -0.4375 C 6.070312 -0.101562 5.382812 0.0625 4.625 0.0625 Z M 4.625 -0.65625 C 5.238281 -0.65625 5.789062 -0.789062 6.28125 -1.0625 C 6.769531 -1.34375 7.15625 -1.726562 7.4375 -2.21875 C 7.71875 -2.707031 7.859375 -3.253906 7.859375 -3.859375 C 7.859375 -4.460938 7.71875 -5.003906 7.4375 -5.484375 C 7.15625 -5.972656 6.769531 -6.351562 6.28125 -6.625 C 5.789062 -6.90625 5.238281 -7.046875 4.625 -7.046875 C 4.019531 -7.046875 3.46875 -6.90625 2.96875 -6.625 C 2.46875 -6.351562 2.078125 -5.972656 1.796875 -5.484375 C 1.515625 -5.003906 1.375 -4.460938 1.375 -3.859375 C 1.375 -3.253906 1.515625 -2.707031 1.796875 -2.21875 C 2.078125 -1.726562 2.46875 -1.34375 2.96875 -1.0625 C 3.46875 -0.789062 4.019531 -0.65625 4.625 -0.65625 Z M 4.625 -0.65625 "/></g></g></g><g fill="#333333" fill-opacity="1"><g transform="translate(203.487276, 191.275205)"><g/></g></g><g fill="#333333" fill-opacity="1"><g transform="translate(211.258628, 191.275205)"><g><path d="M 6.78125 0.125 L 5.703125 -0.984375 C 5.046875 -0.285156 4.1875 0.0625 3.125 0.0625 C 2.625 0.0625 2.175781 -0.015625 1.78125 -0.171875 C 1.394531 -0.335938 1.09375 -0.570312 0.875 -0.875 C 0.65625 -1.175781 0.546875 -1.515625 0.546875 -1.890625 C 0.546875 -2.359375 0.691406 -2.773438 0.984375 -3.140625 C 1.273438 -3.503906 1.773438 -3.890625 2.484375 -4.296875 C 2.109375 -4.679688 1.851562 -5.003906 1.71875 -5.265625 C 1.582031 -5.535156 1.515625 -5.820312 1.515625 -6.125 C 1.515625 -6.613281 1.6875 -7.007812 2.03125 -7.3125 C 2.382812 -7.613281 2.859375 -7.765625 3.453125 -7.765625 C 4.003906 -7.765625 4.441406 -7.628906 4.765625 -7.359375 C 5.085938 -7.085938 5.25 -6.710938 5.25 -6.234375 C 5.25 -5.847656 5.117188 -5.503906 4.859375 -5.203125 C 4.609375 -4.898438 4.164062 -4.566406 3.53125 -4.203125 L 5.65625 -2.015625 C 5.882812 -2.429688 6.054688 -2.925781 6.171875 -3.5 L 6.8125 -3.3125 C 6.664062 -2.613281 6.4375 -2.019531 6.125 -1.53125 L 7.21875 -0.390625 Z M 3.453125 -7.1875 C 3.078125 -7.1875 2.78125 -7.085938 2.5625 -6.890625 C 2.34375 -6.703125 2.234375 -6.453125 2.234375 -6.140625 C 2.234375 -5.910156 2.289062 -5.691406 2.40625 -5.484375 C 2.53125 -5.273438 2.765625 -5 3.109375 -4.65625 C 3.660156 -4.976562 4.039062 -5.25 4.25 -5.46875 C 4.46875 -5.695312 4.578125 -5.945312 4.578125 -6.21875 C 4.578125 -6.519531 4.476562 -6.753906 4.28125 -6.921875 C 4.082031 -7.097656 3.804688 -7.1875 3.453125 -7.1875 Z M 3.171875 -0.578125 C 4.023438 -0.578125 4.71875 -0.867188 5.25 -1.453125 L 2.921875 -3.84375 C 2.304688 -3.5 1.882812 -3.1875 1.65625 -2.90625 C 1.425781 -2.625 1.3125 -2.3125 1.3125 -1.96875 C 1.3125 -1.550781 1.476562 -1.210938 1.8125 -0.953125 C 2.15625 -0.703125 2.609375 -0.578125 3.171875 -0.578125 Z M 3.171875 -0.578125 "/></g></g></g><g fill="#333333" fill-opacity="1"><g transform="translate(223.515618, 191.275205)"><g/></g></g><g fill="#333333" fill-opacity="1"><g transform="translate(231.286975, 191.275205)"><g><path d="M 4.625 0.0625 C 3.863281 0.0625 3.171875 -0.101562 2.546875 -0.4375 C 1.929688 -0.78125 1.445312 -1.25 1.09375 -1.84375 C 0.75 -2.445312 0.578125 -3.117188 0.578125 -3.859375 C 0.578125 -4.597656 0.75 -5.265625 1.09375 -5.859375 C 1.445312 -6.453125 1.929688 -6.921875 2.546875 -7.265625 C 3.171875 -7.609375 3.863281 -7.78125 4.625 -7.78125 C 5.382812 -7.78125 6.070312 -7.609375 6.6875 -7.265625 C 7.300781 -6.929688 7.785156 -6.460938 8.140625 -5.859375 C 8.492188 -5.265625 8.671875 -4.597656 8.671875 -3.859375 C 8.671875 -3.117188 8.492188 -2.445312 8.140625 -1.84375 C 7.785156 -1.25 7.300781 -0.78125 6.6875 -0.4375 C 6.070312 -0.101562 5.382812 0.0625 4.625 0.0625 Z M 4.625 -0.65625 C 5.238281 -0.65625 5.789062 -0.789062 6.28125 -1.0625 C 6.769531 -1.34375 7.15625 -1.726562 7.4375 -2.21875 C 7.71875 -2.707031 7.859375 -3.253906 7.859375 -3.859375 C 7.859375 -4.460938 7.71875 -5.003906 7.4375 -5.484375 C 7.15625 -5.972656 6.769531 -6.351562 6.28125 -6.625 C 5.789062 -6.90625 5.238281 -7.046875 4.625 -7.046875 C 4.019531 -7.046875 3.46875 -6.90625 2.96875 -6.625 C 2.46875 -6.351562 2.078125 -5.972656 1.796875 -5.484375 C 1.515625 -5.003906 1.375 -4.460938 1.375 -3.859375 C 1.375 -3.253906 1.515625 -2.707031 1.796875 -2.21875 C 2.078125 -1.726562 2.46875 -1.34375 2.96875 -1.0625 C 3.46875 -0.789062 4.019531 -0.65625 4.625 -0.65625 Z M 4.625 -0.65625 "/></g></g></g><g fill="#333333" fill-opacity="1"><g transform="translate(245.417583, 191.275205)"><g><path d="M 6.109375 -3.984375 C 6.617188 -3.867188 7.007812 -3.644531 7.28125 -3.3125 C 7.5625 -2.988281 7.703125 -2.570312 7.703125 -2.0625 C 7.703125 -1.394531 7.457031 -0.882812 6.96875 -0.53125 C 6.476562 -0.175781 5.753906 0 4.796875 0 L 1.25 0 L 1.25 -7.71875 L 4.578125 -7.71875 C 5.441406 -7.71875 6.109375 -7.539062 6.578125 -7.1875 C 7.054688 -6.84375 7.296875 -6.359375 7.296875 -5.734375 C 7.296875 -5.304688 7.191406 -4.941406 6.984375 -4.640625 C 6.773438 -4.347656 6.484375 -4.128906 6.109375 -3.984375 Z M 2.078125 -7.03125 L 2.078125 -4.234375 L 4.53125 -4.234375 C 5.15625 -4.234375 5.632812 -4.351562 5.96875 -4.59375 C 6.3125 -4.832031 6.484375 -5.179688 6.484375 -5.640625 C 6.484375 -6.097656 6.3125 -6.441406 5.96875 -6.671875 C 5.632812 -6.910156 5.15625 -7.03125 4.53125 -7.03125 Z M 4.796875 -0.671875 C 5.484375 -0.671875 6.003906 -0.785156 6.359375 -1.015625 C 6.710938 -1.253906 6.890625 -1.625 6.890625 -2.125 C 6.890625 -3.082031 6.191406 -3.5625 4.796875 -3.5625 L 2.078125 -3.5625 L 2.078125 -0.671875 Z M 4.796875 -0.671875 "/></g></g></g><g fill="#333333" fill-opacity="1"><g transform="translate(258.611384, 191.275205)"><g><path d="M 6.515625 0 L 4.765625 -2.484375 C 4.566406 -2.460938 4.359375 -2.453125 4.140625 -2.453125 L 2.078125 -2.453125 L 2.078125 0 L 1.25 0 L 1.25 -7.71875 L 4.140625 -7.71875 C 5.128906 -7.71875 5.898438 -7.476562 6.453125 -7 C 7.015625 -6.53125 7.296875 -5.882812 7.296875 -5.0625 C 7.296875 -4.457031 7.140625 -3.945312 6.828125 -3.53125 C 6.523438 -3.125 6.09375 -2.828125 5.53125 -2.640625 L 7.40625 0 Z M 4.125 -3.140625 C 4.882812 -3.140625 5.46875 -3.304688 5.875 -3.640625 C 6.28125 -3.984375 6.484375 -4.457031 6.484375 -5.0625 C 6.484375 -5.6875 6.28125 -6.164062 5.875 -6.5 C 5.46875 -6.832031 4.882812 -7 4.125 -7 L 2.078125 -7 L 2.078125 -3.140625 Z M 4.125 -3.140625 "/></g></g></g><g fill="#333333" fill-opacity="1"><g transform="translate(271.463509, 191.275205)"><g><path d="M 6.09375 -2.0625 L 1.796875 -2.0625 L 0.875 0 L 0.015625 0 L 3.546875 -7.71875 L 4.34375 -7.71875 L 7.875 0 L 7.015625 0 Z M 5.796875 -2.71875 L 3.9375 -6.859375 L 2.09375 -2.71875 Z M 5.796875 -2.71875 "/></g></g></g><g fill="#333333" fill-opacity="1"><g transform="translate(284.249528, 191.275205)"><g><path d="M 3.375 0.0625 C 2.800781 0.0625 2.253906 -0.0234375 1.734375 -0.203125 C 1.210938 -0.390625 0.804688 -0.632812 0.515625 -0.9375 L 0.84375 -1.5625 C 1.113281 -1.28125 1.476562 -1.050781 1.9375 -0.875 C 2.40625 -0.707031 2.882812 -0.625 3.375 -0.625 C 4.070312 -0.625 4.59375 -0.75 4.9375 -1 C 5.28125 -1.257812 5.453125 -1.59375 5.453125 -2 C 5.453125 -2.300781 5.359375 -2.539062 5.171875 -2.71875 C 4.984375 -2.90625 4.753906 -3.050781 4.484375 -3.15625 C 4.210938 -3.257812 3.832031 -3.367188 3.34375 -3.484375 C 2.769531 -3.628906 2.304688 -3.769531 1.953125 -3.90625 C 1.609375 -4.039062 1.3125 -4.25 1.0625 -4.53125 C 0.820312 -4.8125 0.703125 -5.1875 0.703125 -5.65625 C 0.703125 -6.050781 0.804688 -6.40625 1.015625 -6.71875 C 1.222656 -7.039062 1.535156 -7.296875 1.953125 -7.484375 C 2.378906 -7.679688 2.910156 -7.78125 3.546875 -7.78125 C 3.984375 -7.78125 4.410156 -7.71875 4.828125 -7.59375 C 5.253906 -7.46875 5.625 -7.300781 5.9375 -7.09375 L 5.65625 -6.4375 C 5.332031 -6.65625 4.988281 -6.816406 4.625 -6.921875 C 4.257812 -7.023438 3.898438 -7.078125 3.546875 -7.078125 C 2.867188 -7.078125 2.359375 -6.945312 2.015625 -6.6875 C 1.679688 -6.425781 1.515625 -6.09375 1.515625 -5.6875 C 1.515625 -5.375 1.609375 -5.125 1.796875 -4.9375 C 1.984375 -4.75 2.21875 -4.601562 2.5 -4.5 C 2.78125 -4.40625 3.160156 -4.300781 3.640625 -4.1875 C 4.203125 -4.050781 4.65625 -3.910156 5 -3.765625 C 5.351562 -3.628906 5.648438 -3.425781 5.890625 -3.15625 C 6.128906 -2.882812 6.25 -2.507812 6.25 -2.03125 C 6.25 -1.644531 6.144531 -1.289062 5.9375 -0.96875 C 5.726562 -0.65625 5.40625 -0.40625 4.96875 -0.21875 C 4.539062 -0.03125 4.007812 0.0625 3.375 0.0625 Z M 3.375 0.0625 "/></g></g></g></svg>